PathFileType	4	(X/Y/Z)	Patient4_TMGait_0pt3_01_left_13.trc.trc
DataRate	CameraRate	NumFrames	NumMarkers	Units	OrigDataRate	OrigDataStartFrame	OrigNumFrames
54.687500000000	54.687500000000	4	33	mm	54.687500000000	106	       141
Frame#	Time	Sacral			L.Shoulder			Chest			R.Shoulder			Neck			R.ASIS			L.ASIS			R.Thigh.Superior			R.Thigh.Lateral			R.Thigh.Inferior			R.Patella			L.Thigh.Superior			L.Thigh.Lateral			L.Thigh.Inferior			L.Patella			L.Shank.Superior			L.Shank.Lateral			L.Shank.Inferior			R.Shank.Superior			R.Shank.Lateral			R.Shank.Inferior			R.Heel			R.Midfoot.Superior			R.Midfoot.Lateral			R.Toe			L.Heel			L.Midfoot.Lateral			L.Midfoot.Superior			L.Toe			L.Elbow			L.Wrist			R.Elbow			R.Wrist			
		X1	Y1	Z1	X2	Y2	Z2	X3	Y3	Z3	X4	Y4	Z4	X5	Y5	Z5	X6	Y6	Z6	X7	Y7	Z7	X8	Y8	Z8	X9	Y9	Z9	X10	Y10	Z10	X11	Y11	Z11	X12	Y12	Z12	X13	Y13	Z13	X14	Y14	Z14	X15	Y15	Z15	X16	Y16	Z16	X17	Y17	Z17	X18	Y18	Z18	X19	Y19	Z19	X20	Y20	Z20	X21	Y21	Z21	X22	Y22	Z22	X23	Y23	Z23	X24	Y24	Z24	X25	Y25	Z25	X26	Y26	Z26	X27	Y27	Z27	X28	Y28	Z28	X29	Y29	Z29	X30	Y30	Z30	X31	Y31	Z31	X32	Y32	Z32	X33	Y33	Z33	

106	26.020000000000	760.982397019704	989.048414694361	580.242043619943	940.163541073326	1415.993376702312	389.279280665412	1030.885057832851	1357.175599096086	561.196436757505	931.344208179790	1435.471238380713	724.355707391961	916.018763631423	1485.129171096894	544.218770557849	989.802003798420	938.763700184170	707.593252082580	983.077523489958	948.855368154448	432.416367855754	1037.577295050978	735.849394149815	672.206400481611	956.549559429824	620.271356751798	722.168894245835	1037.142200510840	572.514766769510	643.118170441996	1036.790624625523	478.042033703438	645.607893203345	1064.273297771316	759.990350497705	465.017660967865	1019.595087701405	635.742402630634	382.345505325410	1117.002674185895	568.965621659309	450.911151561918	1124.520860308278	477.740471726275	440.072475328126	1049.916588512406	418.174978360890	424.661965322317	904.074094333355	397.400095562678	373.147818336648	875.245541319705	265.753969666071	415.114560265920	993.553151187903	391.160239981533	646.556016869736	906.182814259422	296.521691330597	701.280576622718	935.495771006103	199.265935697954	635.927519576974	781.538627199706	45.533472251395	595.501060096204	951.197763859088	97.196374396620	645.483670483990	858.412948387586	38.074594389119	676.762723054491	1066.915496147091	40.992767444056	684.748870373171	683.225043989339	243.605378869044	453.620430857299	720.707159447135	183.861386121578	370.453342030955	824.637519518742	157.448582979362	386.702858473801	862.886857985853	29.444711958361	353.738053959832	941.547630885872	1056.078361394534	290.460138640321	1062.885752194334	826.021328254526	305.908119733951	931.630159473397	1106.117991440223	881.934525926118	1173.464420885599	1028.150531546523	902.099296546853	
107	26.038285714286	759.833665933631	987.981807485417	582.637775210352	936.244622251875	1414.657444974096	389.276988511897	1029.475997736367	1356.342846809722	560.002127265294	932.354709132056	1434.954576970046	724.514665485211	914.535217302757	1484.228750295896	544.421800006098	990.013497679793	937.879149003320	707.628939888588	980.323773182130	948.363848897413	432.550094918057	1037.329464384151	734.790667385029	671.874323240536	956.537686869692	619.188835425446	722.169032949882	1036.628672699409	571.403649859228	642.598449277329	1036.107939596310	476.543945649531	644.984334929031	1065.214780031435	762.976923112969	465.381436297081	1023.267104523075	637.731475797938	382.792115181987	1122.641550519903	573.279289069293	450.966346756719	1132.116490959678	481.944873759657	440.049909638085	1058.308856533115	421.087433076944	424.932244515547	911.959423040109	398.204228353507	375.407287619863	886.408300591745	265.750298407289	416.705950240598	991.747920964331	389.867516557603	646.140973462537	903.596751734767	296.087137830048	701.173018161831	931.542405281906	198.544345421256	635.721547650505	776.080396812327	45.668250563996	595.585864672889	945.803618578053	97.083560533376	645.430722351947	852.983546238618	38.116442574921	676.838488930803	1061.474595336380	40.810580253083	684.870675567032	695.215418139981	237.139804215118	457.578029760162	733.811813424447	181.059883960309	372.704286505842	838.427751498563	158.549074367573	387.689008058395	880.628416447088	31.479321534970	351.076863661404	927.823069148568	1054.004369394479	293.276402808963	1030.304165031287	814.657596224436	307.630161919430	945.932456259340	1106.555363859458	882.968652686528	1192.653685976644	1045.847115109448	897.264148031704	
108	26.056571428571	758.764175386673	987.380660240136	584.723296773632	932.462692903243	1413.762833309109	389.183901066437	1028.218567292583	1355.830064312789	558.615638135399	933.625703882516	1434.762061172551	724.483674970310	913.213326406885	1483.678198227772	544.504791627366	990.184329950803	937.205571806247	707.323185859865	977.566720119213	948.261742341804	432.358929647173	1036.650983074439	733.824997192550	671.192715868891	955.887862532828	618.380978923960	721.912455689176	1035.349278305045	570.408222249283	641.836537518659	1034.510938398705	475.292541945412	644.157390063079	1065.445014953843	765.892881866567	465.310047418992	1025.688402693653	639.794999741291	382.912934834662	1126.752070566976	577.406481075549	450.631103851572	1138.109418232212	486.256770314998	439.652772314794	1065.708738861457	423.954810906955	424.818644469282	919.463452285296	397.343714832430	377.069730289656	898.584989849460	264.083032073194	417.845231436582	989.248577533935	388.836163462337	645.622918855058	900.466839154897	295.781903706676	700.961400723723	927.296507279109	197.965746622017	635.488967597631	770.619863849879	45.799590416855	595.659607175810	940.392455011937	96.984557397913	645.376829416484	847.545043108032	38.162627831794	676.911930570727	1056.016779331112	40.654461782353	684.984769513647	708.821141375697	226.285365180351	460.760462549796	749.396172221873	174.759970615535	374.301644419920	854.628073119431	157.950998357603	388.268974509432	902.886775510791	33.757211451555	348.190170869816	913.628125438839	1052.897228520123	295.705728533787	997.816664667161	806.314962964677	309.524721498488	960.587390750836	1107.736554750324	883.326531268763	1210.818909102005	1064.283092132271	891.213732767269	
109	26.074857142857	757.779000493040	987.276509669013	586.530024812539	928.830919633218	1413.334667059928	388.985130916377	1027.134091746543	1355.655695944442	557.013530438701	935.196328969574	1434.920628737969	724.233348071000	912.078623360012	1483.498699575362	544.448820089301	990.313179506216	936.751607730093	706.666911222521	974.818229662081	948.574747087622	431.831959112881	1035.503527495677	732.966940401949	670.152190747866	954.565411008778	617.875749656777	721.426339778286	1033.238366897644	569.547322256728	640.846413906556	1031.923915183815	474.316280173529	643.158273607618	1064.955788981964	768.675545987469	464.864594452217	1026.897220474034	641.875904681469	382.714724423708	1129.281493123967	581.224791558609	450.004086408011	1142.452740367479	490.580001396314	438.959467867649	1072.101538422096	426.718240238431	424.349675199598	926.767127811776	394.797675038829	377.964416452738	911.876843412206	260.859145692072	418.413234102575	985.998571963593	388.089257466652	645.029002149920	896.748339371291	295.610377570976	700.670152600956	922.728841472272	197.541304697433	635.242634675063	765.152828116821	45.916202538213	595.729736653607	934.956708339362	96.902725494680	645.325181419120	842.090534865371	38.206873179001	676.984969058707	1050.537888243335	40.531558191664	685.086737964672	724.373056902910	211.596404714722	462.827828525881	767.641864329821	165.300126046192	375.045813779757	873.229336586282	155.686123978885	388.368940542308	929.236092098514	36.137666900434	345.285524124362	899.047829001347	1052.830552892179	297.724719012078	965.930303278609	800.886674227768	311.551238414912	975.479869264761	1109.730810578432	883.021453741142	1227.827765340637	1083.336787899357	884.024777292517	
